<?xml version="1.0" encoding="UTF-8"?>
<svg width="754px" height="374px" viewBox="0 0 754 374" version="1.1" xmlns="http://www.w3.org/2000/svg" xmlns:xlink="http://www.w3.org/1999/xlink">
    <!-- Generator: Sketch 46.2 (44496) - http://www.bohemiancoding.com/sketch -->
    <title>DesignThinking</title>
    <desc>Created with Sketch.</desc>
    <defs></defs>
    <g id="Page-1" stroke="none" stroke-width="1" fill="none" fill-rule="evenodd">
        <g id="DesignThinking">
            <g>
                <polygon id="Polygon" fill="#F05E2C" fill-rule="nonzero" transform="translate(105.500000, 110.000000) rotate(30.000000) translate(-105.500000, -110.000000) " points="105.5 26 178.246134 68 178.246134 152 105.5 194 32.7538661 152 32.7538661 68"></polygon>
                <polygon id="Polygon" fill="#477AA0" fill-rule="nonzero" transform="translate(242.500000, 187.000000) rotate(30.000000) translate(-242.500000, -187.000000) " points="242.5 103 315.246134 145 315.246134 229 242.5 271 169.753866 229 169.753866 145"></polygon>
                <polygon id="Polygon" fill="#AACC42" fill-rule="nonzero" transform="translate(379.500000, 110.000000) rotate(30.000000) translate(-379.500000, -110.000000) " points="379.5 26 452.246134 68 452.246134 152 379.5 194 306.753866 152 306.753866 68"></polygon>
                <polygon id="Polygon" fill="#40B6FF" fill-rule="nonzero" transform="translate(514.500000, 187.000000) rotate(30.000000) translate(-514.500000, -187.000000) " points="514.5 103 587.246134 145 587.246134 229 514.5 271 441.753866 229 441.753866 145"></polygon>
                <polygon id="Polygon" fill="#AE3378" fill-rule="nonzero" transform="translate(648.500000, 264.000000) rotate(30.000000) translate(-648.500000, -264.000000) " points="648.5 180 721.246134 222 721.246134 306 648.5 348 575.753866 306 575.753866 222"></polygon>
                <path d="M54.2922499,98.296799 L53.9562499,100.648799 L47.8362499,100.648799 L47.8362499,105.280799 L53.1642499,105.280799 L53.1642499,107.632799 L47.8362499,107.632799 L47.8362499,112.504799 L54.3882499,112.504799 L54.3882499,114.880799 L44.6682499,114.880799 L44.6682499,98.296799 L54.2922499,98.296799 Z M73.1082499,114.880799 L70.0122499,114.880799 L69.5802499,107.944799 C69.4362492,105.464787 69.3642499,103.496806 69.3642499,102.040799 L69.3642499,101.176799 L66.3402499,113.080799 L63.3402499,113.080799 L60.1242499,101.152799 C60.1562501,102.208804 60.1722499,103.008796 60.1722499,103.552799 C60.1722499,105.008806 60.1242504,106.504791 60.0282499,108.040799 L59.6202499,114.880799 L56.5482499,114.880799 L57.8682499,98.296799 L61.9482499,98.296799 L64.9002499,109.912799 L67.6842499,98.296799 L71.8122499,98.296799 L73.1082499,114.880799 Z M86.0082499,99.616799 C87.1842558,100.496803 87.7722499,101.81679 87.7722499,103.576799 C87.7722499,105.416808 87.1802558,106.796794 85.9962499,107.716799 C84.812244,108.636804 83.2362597,109.096799 81.2682499,109.096799 L79.3242499,109.096799 L79.3242499,114.880799 L76.1562499,114.880799 L76.1562499,98.296799 L81.0522499,98.296799 C83.1802605,98.296799 84.832244,98.7367946 86.0082499,99.616799 Z M83.5962499,106.012799 C84.1722528,105.540797 84.4602499,104.728805 84.4602499,103.576799 C84.4602499,101.608789 83.3162613,100.624799 81.0282499,100.624799 L79.3242499,100.624799 L79.3242499,106.720799 L81.0282499,106.720799 C82.1642556,106.720799 83.020247,106.484801 83.5962499,106.012799 Z M97.6842499,114.880799 L96.6522499,111.040799 L91.1562499,111.040799 L90.1242499,114.880799 L86.8362499,114.880799 L91.9962499,98.296799 L95.9082499,98.296799 L101.04425,114.880799 L97.6842499,114.880799 Z M91.7802499,108.640799 L96.0042499,108.640799 L93.8922499,100.720799 L91.7802499,108.640799 Z M112.34825,98.296799 L112.01225,100.816799 L107.69225,100.816799 L107.69225,114.880799 L104.50025,114.880799 L104.50025,100.816799 L100.03625,100.816799 L100.03625,98.296799 L112.34825,98.296799 Z M123.48425,114.880799 L123.48425,107.464799 L117.58025,107.464799 L117.58025,114.880799 L114.41225,114.880799 L114.41225,98.296799 L117.58025,98.296799 L117.58025,104.944799 L123.48425,104.944799 L123.48425,98.296799 L126.67625,98.296799 L126.67625,114.880799 L123.48425,114.880799 Z M133.70825,98.296799 L133.70825,114.880799 L130.54025,114.880799 L130.54025,98.296799 L133.70825,98.296799 Z M147.55625,98.296799 L147.55625,100.744799 L139.90025,112.288799 L147.62825,112.288799 L147.29225,114.880799 L136.20425,114.880799 L136.20425,112.456799 L144.00425,100.816799 L136.99625,100.816799 L136.99625,98.296799 L147.55625,98.296799 Z M160.03625,98.296799 L159.70025,100.648799 L153.58025,100.648799 L153.58025,105.280799 L158.90825,105.280799 L158.90825,107.632799 L153.58025,107.632799 L153.58025,112.504799 L160.13225,112.504799 L160.13225,114.880799 L150.41225,114.880799 L150.41225,98.296799 L160.03625,98.296799 Z" id="EMPATHIZE" fill="#FFFFFF"></path>
                <path d="M213.8855,179.048799 C215.429508,180.216805 216.2015,182.368783 216.2015,185.504799 C216.2015,188.576814 215.441508,190.740793 213.9215,191.996799 C212.401492,193.252805 210.473512,193.880799 208.1375,193.880799 L203.6255,193.880799 L203.6255,177.296799 L207.7055,177.296799 C210.281513,177.296799 212.341492,177.880793 213.8855,179.048799 Z M206.7935,179.672799 L206.7935,191.504799 L208.3535,191.504799 C209.761507,191.504799 210.865496,191.068803 211.6655,190.196799 C212.465504,189.324795 212.8655,187.76081 212.8655,185.504799 C212.8655,183.936791 212.661502,182.724803 212.2535,181.868799 C211.845498,181.012795 211.309503,180.432801 210.6455,180.128799 C209.981497,179.824797 209.185505,179.672799 208.2575,179.672799 L206.7935,179.672799 Z M228.8015,177.296799 L228.4655,179.648799 L222.3455,179.648799 L222.3455,184.280799 L227.6735,184.280799 L227.6735,186.632799 L222.3455,186.632799 L222.3455,191.504799 L228.8975,191.504799 L228.8975,193.880799 L219.1775,193.880799 L219.1775,177.296799 L228.8015,177.296799 Z M231.8975,193.880799 L231.8975,177.296799 L241.2815,177.296799 L240.9455,179.648799 L235.0655,179.648799 L235.0655,184.616799 L240.1775,184.616799 L240.1775,186.968799 L235.0655,186.968799 L235.0655,193.880799 L231.8975,193.880799 Z M246.8015,177.296799 L246.8015,193.880799 L243.6335,193.880799 L243.6335,177.296799 L246.8015,177.296799 Z M262.9295,193.880799 L258.8255,193.880799 L253.1375,180.464799 C253.281501,181.648805 253.3895,182.720794 253.4615,183.680799 C253.5335,184.640804 253.5695,185.784792 253.5695,187.112799 L253.5695,193.880799 L250.6895,193.880799 L250.6895,177.296799 L254.6975,177.296799 L260.4815,190.736799 C260.3855,190.096796 260.2895,189.252804 260.1935,188.204799 C260.0975,187.156794 260.0495,186.112804 260.0495,185.072799 L260.0495,177.296799 L262.9295,177.296799 L262.9295,193.880799 Z M276.4415,177.296799 L276.1055,179.648799 L269.9855,179.648799 L269.9855,184.280799 L275.3135,184.280799 L275.3135,186.632799 L269.9855,186.632799 L269.9855,191.504799 L276.5375,191.504799 L276.5375,193.880799 L266.8175,193.880799 L266.8175,177.296799 L276.4415,177.296799 Z" id="DEFINE" fill="#FFFFFF"></path>
                <path d="M343.9695,101.296799 L343.9695,117.880799 L340.8015,117.880799 L340.8015,101.296799 L343.9695,101.296799 Z M358.1175,103.048799 C359.661508,104.216805 360.4335,106.368783 360.4335,109.504799 C360.4335,112.576814 359.673508,114.740793 358.1535,115.996799 C356.633492,117.252805 354.705512,117.880799 352.3695,117.880799 L347.8575,117.880799 L347.8575,101.296799 L351.9375,101.296799 C354.513513,101.296799 356.573492,101.880793 358.1175,103.048799 Z M351.0255,103.672799 L351.0255,115.504799 L352.5855,115.504799 C353.993507,115.504799 355.097496,115.068803 355.8975,114.196799 C356.697504,113.324795 357.0975,111.76081 357.0975,109.504799 C357.0975,107.936791 356.893502,106.724803 356.4855,105.868799 C356.077498,105.012795 355.541503,104.432801 354.8775,104.128799 C354.213497,103.824797 353.417505,103.672799 352.4895,103.672799 L351.0255,103.672799 Z M373.0335,101.296799 L372.6975,103.648799 L366.5775,103.648799 L366.5775,108.280799 L371.9055,108.280799 L371.9055,110.632799 L366.5775,110.632799 L366.5775,115.504799 L373.1295,115.504799 L373.1295,117.880799 L363.4095,117.880799 L363.4095,101.296799 L373.0335,101.296799 Z M384.9135,117.880799 L383.8815,114.040799 L378.3855,114.040799 L377.3535,117.880799 L374.0655,117.880799 L379.2255,101.296799 L383.1375,101.296799 L388.2735,117.880799 L384.9135,117.880799 Z M379.0095,111.640799 L383.2335,111.640799 L381.1215,103.720799 L379.0095,111.640799 Z M399.5775,101.296799 L399.2415,103.816799 L394.9215,103.816799 L394.9215,117.880799 L391.7295,117.880799 L391.7295,103.816799 L387.2655,103.816799 L387.2655,101.296799 L399.5775,101.296799 Z M411.2655,101.296799 L410.9295,103.648799 L404.8095,103.648799 L404.8095,108.280799 L410.1375,108.280799 L410.1375,110.632799 L404.8095,110.632799 L404.8095,115.504799 L411.3615,115.504799 L411.3615,117.880799 L401.6415,117.880799 L401.6415,101.296799 L411.2655,101.296799 Z" id="IDEATE" fill="#FFFFFF"></path>
                <path d="M459.57625,178.616799 C460.752256,179.496803 461.34025,180.81679 461.34025,182.576799 C461.34025,184.416808 460.748256,185.796794 459.56425,186.716799 C458.380244,187.636804 456.80426,188.096799 454.83625,188.096799 L452.89225,188.096799 L452.89225,193.880799 L449.72425,193.880799 L449.72425,177.296799 L454.62025,177.296799 C456.748261,177.296799 458.400244,177.736795 459.57625,178.616799 Z M457.16425,185.012799 C457.740253,184.540797 458.02825,183.728805 458.02825,182.576799 C458.02825,180.608789 456.884261,179.624799 454.59625,179.624799 L452.89225,179.624799 L452.89225,185.720799 L454.59625,185.720799 C455.732256,185.720799 456.588247,185.484801 457.16425,185.012799 Z M469.09225,187.232799 L467.07625,187.232799 L467.07625,193.880799 L463.90825,193.880799 L463.90825,177.296799 L468.85225,177.296799 C473.236272,177.296799 475.42825,178.920783 475.42825,182.168799 C475.42825,183.272805 475.156253,184.184795 474.61225,184.904799 C474.068247,185.624803 473.220256,186.208797 472.06825,186.656799 L476.41225,193.880799 L472.76425,193.880799 L469.09225,187.232799 Z M467.07625,184.952799 L469.04425,184.952799 C470.052255,184.952799 470.816247,184.732801 471.33625,184.292799 C471.856253,183.852797 472.11625,183.144804 472.11625,182.168799 C472.11625,181.272795 471.848253,180.620801 471.31225,180.212799 C470.776247,179.804797 469.932256,179.600799 468.78025,179.600799 L467.07625,179.600799 L467.07625,184.952799 Z M488.53225,177.944799 C489.620255,178.616802 490.456247,179.600793 491.04025,180.896799 C491.624253,182.192805 491.91625,183.75279 491.91625,185.576799 C491.91625,187.384808 491.620253,188.936793 491.02825,190.232799 C490.436247,191.528805 489.596255,192.520796 488.50825,193.208799 C487.420245,193.896802 486.140257,194.240799 484.66825,194.240799 C483.180243,194.240799 481.892255,193.904802 480.80425,193.232799 C479.716245,192.560796 478.876253,191.576805 478.28425,190.280799 C477.692247,188.984793 477.39625,187.424808 477.39625,185.600799 C477.39625,183.80879 477.692247,182.260806 478.28425,180.956799 C478.876253,179.652792 479.720245,178.656802 480.81625,177.968799 C481.912255,177.280796 483.196243,176.936799 484.66825,176.936799 C486.156257,176.936799 487.444245,177.272796 488.53225,177.944799 Z M481.74025,180.860799 C481.068247,181.860804 480.73225,183.440788 480.73225,185.600799 C480.73225,189.74482 482.044237,191.816799 484.66825,191.816799 C485.948256,191.816799 486.920247,191.320804 487.58425,190.328799 C488.248253,189.336794 488.58025,187.75281 488.58025,185.576799 C488.58025,183.416788 488.248253,181.840804 487.58425,180.848799 C486.920247,179.856794 485.948256,179.360799 484.66825,179.360799 C483.388244,179.360799 482.412253,179.860794 481.74025,180.860799 Z M504.70825,177.296799 L504.37225,179.816799 L500.05225,179.816799 L500.05225,193.880799 L496.86025,193.880799 L496.86025,179.816799 L492.39625,179.816799 L492.39625,177.296799 L504.70825,177.296799 Z M516.15625,177.944799 C517.244255,178.616802 518.080247,179.600793 518.66425,180.896799 C519.248253,182.192805 519.54025,183.75279 519.54025,185.576799 C519.54025,187.384808 519.244253,188.936793 518.65225,190.232799 C518.060247,191.528805 517.220255,192.520796 516.13225,193.208799 C515.044245,193.896802 513.764257,194.240799 512.29225,194.240799 C510.804243,194.240799 509.516255,193.904802 508.42825,193.232799 C507.340245,192.560796 506.500253,191.576805 505.90825,190.280799 C505.316247,188.984793 505.02025,187.424808 505.02025,185.600799 C505.02025,183.80879 505.316247,182.260806 505.90825,180.956799 C506.500253,179.652792 507.344245,178.656802 508.44025,177.968799 C509.536255,177.280796 510.820243,176.936799 512.29225,176.936799 C513.780257,176.936799 515.068245,177.272796 516.15625,177.944799 Z M509.36425,180.860799 C508.692247,181.860804 508.35625,183.440788 508.35625,185.600799 C508.35625,189.74482 509.668237,191.816799 512.29225,191.816799 C513.572256,191.816799 514.544247,191.320804 515.20825,190.328799 C515.872253,189.336794 516.20425,187.75281 516.20425,185.576799 C516.20425,183.416788 515.872253,181.840804 515.20825,180.848799 C514.544247,179.856794 513.572256,179.360799 512.29225,179.360799 C511.012244,179.360799 510.036253,179.860794 509.36425,180.860799 Z M532.33225,177.296799 L531.99625,179.816799 L527.67625,179.816799 L527.67625,193.880799 L524.48425,193.880799 L524.48425,179.816799 L520.02025,179.816799 L520.02025,177.296799 L532.33225,177.296799 Z M546.27625,177.296799 L540.94825,187.592799 L540.94825,193.880799 L537.73225,193.880799 L537.73225,187.616799 L532.40425,177.296799 L535.90825,177.296799 L539.41225,185.000799 L542.91625,177.296799 L546.27625,177.296799 Z M558.02425,178.616799 C559.200256,179.496803 559.78825,180.81679 559.78825,182.576799 C559.78825,184.416808 559.196256,185.796794 558.01225,186.716799 C556.828244,187.636804 555.25226,188.096799 553.28425,188.096799 L551.34025,188.096799 L551.34025,193.880799 L548.17225,193.880799 L548.17225,177.296799 L553.06825,177.296799 C555.196261,177.296799 556.848244,177.736795 558.02425,178.616799 Z M555.61225,185.012799 C556.188253,184.540797 556.47625,183.728805 556.47625,182.576799 C556.47625,180.608789 555.332261,179.624799 553.04425,179.624799 L551.34025,179.624799 L551.34025,185.720799 L553.04425,185.720799 C554.180256,185.720799 555.036247,185.484801 555.61225,185.012799 Z M571.98025,177.296799 L571.64425,179.648799 L565.52425,179.648799 L565.52425,184.280799 L570.85225,184.280799 L570.85225,186.632799 L565.52425,186.632799 L565.52425,191.504799 L572.07625,191.504799 L572.07625,193.880799 L562.35625,193.880799 L562.35625,177.296799 L571.98025,177.296799 Z" id="PROTOTYPE" fill="#FFFFFF"></path>
                <path d="M633.597,254.296799 L633.261,256.816799 L628.941,256.816799 L628.941,270.880799 L625.749,270.880799 L625.749,256.816799 L621.285,256.816799 L621.285,254.296799 L633.597,254.296799 Z M645.285,254.296799 L644.949,256.648799 L638.829,256.648799 L638.829,261.280799 L644.157,261.280799 L644.157,263.632799 L638.829,263.632799 L638.829,268.504799 L645.381,268.504799 L645.381,270.880799 L635.661,270.880799 L635.661,254.296799 L645.285,254.296799 Z M655.965,254.440799 C656.829004,254.776801 657.636996,255.288796 658.389,255.976799 L656.829,257.776799 C656.236997,257.280797 655.641003,256.9208 655.041,256.696799 C654.440997,256.472798 653.797003,256.360799 653.109,256.360799 C652.340996,256.360799 651.721002,256.532797 651.249,256.876799 C650.776998,257.220801 650.541,257.704796 650.541,258.328799 C650.541,258.744801 650.632999,259.088798 650.817,259.360799 C651.001001,259.6328 651.332998,259.888798 651.813,260.128799 C652.293002,260.3688 653.004995,260.632798 653.949,260.920799 C655.581008,261.432802 656.808996,262.068795 657.633,262.828799 C658.457004,263.588803 658.869,264.696792 658.869,266.152799 C658.869,267.144804 658.617003,268.024795 658.113,268.792799 C657.608997,269.560803 656.885005,270.160797 655.941,270.592799 C654.996995,271.024801 653.877006,271.240799 652.581,271.240799 C651.316994,271.240799 650.185005,271.036801 649.185,270.628799 C648.184995,270.220797 647.325004,269.664803 646.605,268.960799 L648.237,267.136799 C648.877003,267.680802 649.540997,268.092798 650.229,268.372799 C650.917003,268.6528 651.676996,268.792799 652.509,268.792799 C653.421005,268.792799 654.156997,268.576801 654.717,268.144799 C655.277003,267.712797 655.557,267.104803 655.557,266.320799 C655.557,265.840797 655.461001,265.444801 655.269,265.132799 C655.076999,264.820797 654.749002,264.5408 654.285,264.292799 C653.820998,264.044798 653.149004,263.7848 652.269,263.512799 C650.508991,262.968796 649.237004,262.312803 648.453,261.544799 C647.668996,260.776795 647.277,259.768805 647.277,258.520799 C647.277,257.608794 647.516998,256.808802 647.997,256.120799 C648.477002,255.432796 649.144996,254.896801 650.001,254.512799 C650.857004,254.128797 651.828995,253.936799 652.917,253.936799 C654.085006,253.936799 655.100996,254.104797 655.965,254.440799 Z M671.733,254.296799 L671.397,256.816799 L667.077,256.816799 L667.077,270.880799 L663.885,270.880799 L663.885,256.816799 L659.421,256.816799 L659.421,254.296799 L671.733,254.296799 Z" id="TEST" fill="#FFFFFF"></path>
            </g>
        </g>
    </g>
</svg>