<?xml version="1.0" encoding="UTF-8"?>
<svg width="703px" height="234px" viewBox="0 0 703 234" version="1.1" xmlns="http://www.w3.org/2000/svg" xmlns:xlink="http://www.w3.org/1999/xlink">
    <!-- Generator: Sketch 46.2 (44496) - http://www.bohemiancoding.com/sketch -->
    <title>LeanStartup</title>
    <desc>Created with Sketch.</desc>
    <defs></defs>
    <g id="Page-1" stroke="none" stroke-width="1" fill="none" fill-rule="evenodd">
        <g id="LeanStartup">
            <g transform="translate(1.000000, 3.000000)">
                <g id="Group" transform="translate(0.000000, 62.000000)">
                    <polygon id="Polygon" fill="#F05E2C" fill-rule="nonzero" points="72.7461339 0 145.492268 42 145.492268 126 72.7461339 168 3.01980663e-14 126 -1.77635684e-14 42"></polygon>
                    <g id="BUILD" transform="translate(38.000000, 67.000000)" fill="#FFFFFF">
                        <path d="M13.2552499,14.44 C13.9512534,15.048003 14.2992499,15.9759938 14.2992499,17.224 C14.2992499,18.9520086 13.691256,20.1799964 12.4752499,20.908 C11.2592438,21.6360036 9.55526086,22 7.3632499,22 L2.3712499,22 L2.3712499,5.416 L6.7152499,5.416 C11.2912728,5.416 13.5792499,6.82398592 13.5792499,9.64 C13.5792499,10.6160049 13.2832529,11.4119969 12.6912499,12.028 C12.0992469,12.6440031 11.3712542,13.0399991 10.5072499,13.216 C11.6432556,13.424001 12.5592464,13.831997 13.2552499,14.44 Z M5.5392499,7.744 L5.5392499,12.232 L7.4832499,12.232 C8.3632543,12.232 9.05924734,12.036002 9.5712499,11.644 C10.0832525,11.251998 10.3392499,10.6720038 10.3392499,9.904 C10.3392499,9.103996 10.0712526,8.5440016 9.5352499,8.224 C8.99924722,7.9039984 8.16325558,7.744 7.0272499,7.744 L5.5392499,7.744 Z M10.0632499,19.096 C10.679253,18.7439982 10.9872499,18.0800049 10.9872499,17.104 C10.9872499,16.1599953 10.6952528,15.4800021 10.1112499,15.064 C9.52724698,14.6479979 8.73125494,14.44 7.7232499,14.44 L5.5392499,14.44 L5.5392499,19.624 L7.3872499,19.624 C8.55525574,19.624 9.44724682,19.4480018 10.0632499,19.096 Z M29.1792499,16.576 C29.1792499,17.6960056 28.9432523,18.6919956 28.4712499,19.564 C27.9992475,20.4360044 27.2952546,21.1199975 26.3592499,21.616 C25.4232452,22.1120025 24.2992565,22.36 22.9872499,22.36 C21.00324,22.36 19.4832552,21.8360052 18.4272499,20.788 C17.3712446,19.7399948 16.8432499,18.3360088 16.8432499,16.576 L16.8432499,5.416 L20.0112499,5.416 L20.0112499,16.408 C20.0112499,17.5760058 20.2552475,18.4479971 20.7432499,19.024 C21.2312523,19.6000029 21.9792449,19.888 22.9872499,19.888 C24.011255,19.888 24.7672475,19.6000029 25.2552499,19.024 C25.7432523,18.4479971 25.9872499,17.5760058 25.9872499,16.408 L25.9872499,5.416 L29.1792499,5.416 L29.1792499,16.576 Z M35.9952499,5.416 L35.9952499,22 L32.8272499,22 L32.8272499,5.416 L35.9952499,5.416 Z M43.0512499,5.416 L43.0512499,19.408 L49.6992499,19.408 L49.3392499,22 L39.8832499,22 L39.8832499,5.416 L43.0512499,5.416 Z M62.2872499,7.168 C63.8312576,8.33600584 64.6032499,10.4879843 64.6032499,13.624 C64.6032499,16.6960154 63.8432575,18.8599937 62.3232499,20.116 C60.8032423,21.3720063 58.8752616,22 56.5392499,22 L52.0272499,22 L52.0272499,5.416 L56.1072499,5.416 C58.6832628,5.416 60.7432422,5.99999416 62.2872499,7.168 Z M55.1952499,7.792 L55.1952499,19.624 L56.7552499,19.624 C58.1632569,19.624 59.2672459,19.1880044 60.0672499,18.316 C60.8672539,17.4439956 61.2672499,15.8800113 61.2672499,13.624 C61.2672499,12.0559922 61.0632519,10.8440043 60.6552499,9.988 C60.2472479,9.13199572 59.7112532,8.55200152 59.0472499,8.248 C58.3832466,7.94399848 57.5872545,7.792 56.6592499,7.792 L55.1952499,7.792 Z"></path>
                    </g>
                </g>
                <g id="Group-2" transform="translate(278.000000, 62.000000)">
                    <polygon id="Polygon" fill="#477AA0" fill-rule="nonzero" points="73 0.5 145.746134 42.5 145.746134 126.5 73 168.5 0.253866082 126.5 0.253866082 42.5"></polygon>
                    <g id="MEASURE" transform="translate(18.000000, 69.000000)" fill="#FFFFFF">
                        <path d="M17.8837499,22.3807991 L14.7877499,22.3807991 L14.3557499,15.4447991 C14.2117492,12.9647867 14.1397499,10.9968064 14.1397499,9.5407991 L14.1397499,8.6767991 L11.1157499,20.5807991 L8.1157499,20.5807991 L4.8997499,8.6527991 C4.93175006,9.70880438 4.9477499,10.5087964 4.9477499,11.0527991 C4.9477499,12.5088064 4.89975038,14.0047914 4.8037499,15.5407991 L4.3957499,22.3807991 L1.3237499,22.3807991 L2.6437499,5.7967991 L6.7237499,5.7967991 L9.6757499,17.4127991 L12.4597499,5.7967991 L16.5877499,5.7967991 L17.8837499,22.3807991 Z M30.5557499,5.7967991 L30.2197499,8.1487991 L24.0997499,8.1487991 L24.0997499,12.7807991 L29.4277499,12.7807991 L29.4277499,15.1327991 L24.0997499,15.1327991 L24.0997499,20.0047991 L30.6517499,20.0047991 L30.6517499,22.3807991 L20.9317499,22.3807991 L20.9317499,5.7967991 L30.5557499,5.7967991 Z M42.4357499,22.3807991 L41.4037499,18.5407991 L35.9077499,18.5407991 L34.8757499,22.3807991 L31.5877499,22.3807991 L36.7477499,5.7967991 L40.6597499,5.7967991 L45.7957499,22.3807991 L42.4357499,22.3807991 Z M36.5317499,16.1407991 L40.7557499,16.1407991 L38.6437499,8.2207991 L36.5317499,16.1407991 Z M55.4677499,5.9407991 C56.3317542,6.27680078 57.1397461,6.78879566 57.8917499,7.4767991 L56.3317499,9.2767991 C55.7397469,8.78079662 55.1437529,8.42080022 54.5437499,8.1967991 C53.9437469,7.97279798 53.2997533,7.8607991 52.6117499,7.8607991 C51.8437461,7.8607991 51.2237523,8.03279738 50.7517499,8.3767991 C50.2797475,8.72080082 50.0437499,9.20479598 50.0437499,9.8287991 C50.0437499,10.2448012 50.135749,10.5887977 50.3197499,10.8607991 C50.5037508,11.1328005 50.8357475,11.3887979 51.3157499,11.6287991 C51.7957523,11.8688003 52.5077452,12.1327977 53.4517499,12.4207991 C55.0837581,12.9328017 56.3117458,13.5687953 57.1357499,14.3287991 C57.959754,15.0888029 58.3717499,16.1967918 58.3717499,17.6527991 C58.3717499,18.6448041 58.1197524,19.5247953 57.6157499,20.2927991 C57.1117474,21.0608029 56.3877546,21.6607969 55.4437499,22.0927991 C54.4997452,22.5248013 53.3797564,22.7407991 52.0837499,22.7407991 C50.8197436,22.7407991 49.6877549,22.5368011 48.6877499,22.1287991 C47.6877449,21.7207971 46.8277535,21.1648026 46.1077499,20.4607991 L47.7397499,18.6367991 C48.3797531,19.1808018 49.0437465,19.5927977 49.7317499,19.8727991 C50.4197533,20.1528005 51.1797457,20.2927991 52.0117499,20.2927991 C52.9237545,20.2927991 53.6597471,20.0768013 54.2197499,19.6447991 C54.7797527,19.2127969 55.0597499,18.604803 55.0597499,17.8207991 C55.0597499,17.3407967 54.9637509,16.9448007 54.7717499,16.6327991 C54.5797489,16.3207975 54.2517522,16.0408003 53.7877499,15.7927991 C53.3237476,15.5447979 52.6517543,15.2848005 51.7717499,15.0127991 C50.0117411,14.4687964 48.7397538,13.8128029 47.9557499,13.0447991 C47.171746,12.2767953 46.7797499,11.2688053 46.7797499,10.0207991 C46.7797499,9.10879454 47.0197475,8.30880254 47.4997499,7.6207991 C47.9797523,6.93279566 48.6477456,6.39680102 49.5037499,6.0127991 C50.3597542,5.62879718 51.3317445,5.4367991 52.4197499,5.4367991 C53.5877557,5.4367991 54.6037456,5.60479742 55.4677499,5.9407991 Z M73.1797499,16.9567991 C73.1797499,18.0768047 72.9437523,19.0727947 72.4717499,19.9447991 C71.9997475,20.8168035 71.2957546,21.5007966 70.3597499,21.9967991 C69.4237452,22.4928016 68.2997565,22.7407991 66.9877499,22.7407991 C65.00374,22.7407991 63.4837552,22.2168043 62.4277499,21.1687991 C61.3717446,20.1207939 60.8437499,18.7168079 60.8437499,16.9567991 L60.8437499,5.7967991 L64.0117499,5.7967991 L64.0117499,16.7887991 C64.0117499,17.9568049 64.2557475,18.8287962 64.7437499,19.4047991 C65.2317523,19.980802 65.9797449,20.2687991 66.9877499,20.2687991 C68.011755,20.2687991 68.7677475,19.980802 69.2557499,19.4047991 C69.7437523,18.8287962 69.9877499,17.9568049 69.9877499,16.7887991 L69.9877499,5.7967991 L73.1797499,5.7967991 L73.1797499,16.9567991 Z M82.0117499,15.7327991 L79.9957499,15.7327991 L79.9957499,22.3807991 L76.8277499,22.3807991 L76.8277499,5.7967991 L81.7717499,5.7967991 C86.1557718,5.7967991 88.3477499,7.42078286 88.3477499,10.6687991 C88.3477499,11.7728046 88.0757526,12.6847955 87.5317499,13.4047991 C86.9877472,14.1248027 86.1397557,14.7087969 84.9877499,15.1567991 L89.3317499,22.3807991 L85.6837499,22.3807991 L82.0117499,15.7327991 Z M79.9957499,13.4527991 L81.9637499,13.4527991 C82.9717549,13.4527991 83.7357473,13.2328013 84.2557499,12.7927991 C84.7757525,12.3527969 85.0357499,11.644804 85.0357499,10.6687991 C85.0357499,9.77279462 84.7677526,9.12080114 84.2317499,8.7127991 C83.6957472,8.30479706 82.8517557,8.1007991 81.6997499,8.1007991 L79.9957499,8.1007991 L79.9957499,13.4527991 Z M101.11575,5.7967991 L100.77975,8.1487991 L94.6597499,8.1487991 L94.6597499,12.7807991 L99.9877499,12.7807991 L99.9877499,15.1327991 L94.6597499,15.1327991 L94.6597499,20.0047991 L101.21175,20.0047991 L101.21175,22.3807991 L91.4917499,22.3807991 L91.4917499,5.7967991 L101.11575,5.7967991 Z"></path>
                    </g>
                </g>
                <g id="Group-3" transform="translate(556.000000, 62.000000)">
                    <polygon id="Polygon" fill="#AACC42" fill-rule="nonzero" points="72.7461339 0 145.492268 42 145.492268 126 72.7461339 168 1.29674049e-13 126 8.17124146e-14 42"></polygon>
                    <g id="LEARN" transform="translate(36.000000, 70.000000)" fill="#FFFFFF">
                        <path d="M5.3192499,5.416 L5.3192499,19.408 L11.9672499,19.408 L11.6072499,22 L2.1512499,22 L2.1512499,5.416 L5.3192499,5.416 Z M23.9192499,5.416 L23.5832499,7.768 L17.4632499,7.768 L17.4632499,12.4 L22.7912499,12.4 L22.7912499,14.752 L17.4632499,14.752 L17.4632499,19.624 L24.0152499,19.624 L24.0152499,22 L14.2952499,22 L14.2952499,5.416 L23.9192499,5.416 Z M35.7992499,22 L34.7672499,18.16 L29.2712499,18.16 L28.2392499,22 L24.9512499,22 L30.1112499,5.416 L34.0232499,5.416 L39.1592499,22 L35.7992499,22 Z M29.8952499,15.76 L34.1192499,15.76 L32.0072499,7.84 L29.8952499,15.76 Z M46.1912499,15.352 L44.1752499,15.352 L44.1752499,22 L41.0072499,22 L41.0072499,5.416 L45.9512499,5.416 C50.3352718,5.416 52.5272499,7.03998376 52.5272499,10.288 C52.5272499,11.3920055 52.2552526,12.3039964 51.7112499,13.024 C51.1672472,13.7440036 50.3192557,14.3279978 49.1672499,14.776 L53.5112499,22 L49.8632499,22 L46.1912499,15.352 Z M44.1752499,13.072 L46.1432499,13.072 C47.1512549,13.072 47.9152473,12.8520022 48.4352499,12.412 C48.9552525,11.9719978 49.2152499,11.2640049 49.2152499,10.288 C49.2152499,9.39199552 48.9472526,8.74000204 48.4112499,8.332 C47.8752472,7.92399796 47.0312557,7.72 45.8792499,7.72 L44.1752499,7.72 L44.1752499,13.072 Z M67.9112499,22 L63.8072499,22 L58.1192499,8.584 C58.2632506,9.76800592 58.3712495,10.8399952 58.4432499,11.8 C58.5152503,12.7600048 58.5512499,13.9039934 58.5512499,15.232 L58.5512499,22 L55.6712499,22 L55.6712499,5.416 L59.6792499,5.416 L65.4632499,18.856 C65.3672494,18.2159968 65.2712504,17.3720052 65.1752499,16.324 C65.0792494,15.2759948 65.0312499,14.2320052 65.0312499,13.192 L65.0312499,5.416 L67.9112499,5.416 L67.9112499,22 Z"></path>
                    </g>
                </g>
                <g id="Group-4" transform="translate(150.000000, 135.000000)">
                    <path d="M0.5,11 L115.5,11" id="Line" stroke="#979797" stroke-width="6" stroke-linecap="square"></path>
                    <polygon id="Triangle-2" fill="#979797" fill-rule="nonzero" points="128 11 110 22 110 0"></polygon>
                </g>
                <g id="Group-4" transform="translate(428.000000, 135.000000)">
                    <path d="M0.5,11 L115.5,11" id="Line" stroke="#979797" stroke-width="6" stroke-linecap="square"></path>
                    <polygon id="Triangle-2" fill="#979797" fill-rule="nonzero" points="128 11 110 22 110 0"></polygon>
                </g>
                <polygon id="Triangle-2" fill="#979797" fill-rule="nonzero" transform="translate(119.500000, 72.000000) rotate(27.000000) translate(-119.500000, -72.000000) " points="130 72 109 83 109 61"></polygon>
                <path d="M112.921875,73 C178.140775,24.9427083 257.166966,0.9140625 350.000449,0.9140625 C442.833932,0.9140625 522.233522,24.9427083 588.199219,73" id="Line-2" stroke="#979797" stroke-width="6" stroke-linecap="square"></path>
            </g>
        </g>
    </g>
</svg>